<svg id="Layer_1" data-name="Layer 1" xmlns="http://www.w3.org/2000/svg" viewBox="0 0 513.3 513"><defs><style>.cls-1{fill:#fff;}.cls-1,.cls-2{stroke:#000;stroke-miterlimit:10;}.cls-2{fill:none;}</style></defs><path class="cls-1" d="M508.21,139.33" transform="translate(0.45 0.44)"/><path d="M249.12.06,114.66,277.15.35,512.06H55.63L165,277.15l84.08-.61s0,235.52.93,235.52h53.07V.06Zm2,235.57H183.63L251.12,84.08Z" transform="translate(0.45 0.44)"/><path class="cls-2" d="M249.12.06,114.66,277.15.35,512.06H55.63L165,277.15l84.08-.61s0,235.52.93,235.52h53.07V.06Zm2,235.57H183.63L251.12,84.08Z" transform="translate(0.45 0.44)"/><path d="M407.74.06C350,.06,303.12,61.5,303.12,137.28S350,274.49,407.74,274.49s104.61-61.43,104.61-137.21S465.51.06,407.74.06Zm2,203.15c-28.61,0-51.8-30.42-51.8-67.93s23.19-67.93,51.8-67.93,51.79,30.41,51.79,67.93S438.34,203.21,409.74,203.21Z" transform="translate(0.45 0.44)"/><path class="cls-2" d="M407.74.06C350,.06,303.12,61.5,303.12,137.28S350,274.49,407.74,274.49s104.61-61.43,104.61-137.21S465.51.06,407.74.06Zm2,203.15c-28.61,0-51.8-30.42-51.8-67.93s23.19-67.93,51.8-67.93,51.79,30.41,51.79,67.93S438.34,203.21,409.74,203.21Z" transform="translate(0.45 0.44)"/></svg>